<?xml version="1.0" encoding="UTF-8" standalone="no"?>
<!-- Created with Inkscape (http://www.inkscape.org/) -->

<svg
   width="215.27928mm"
   height="62.634567mm"
   viewBox="0 0 215.27928 62.634567"
   version="1.1"
   id="svg1"
   xml:space="preserve"
   xmlns:inkscape="http://www.inkscape.org/namespaces/inkscape"
   xmlns:sodipodi="http://sodipodi.sourceforge.net/DTD/sodipodi-0.dtd"
   xmlns:xlink="http://www.w3.org/1999/xlink"
   xmlns="http://www.w3.org/2000/svg"
   xmlns:svg="http://www.w3.org/2000/svg"><sodipodi:namedview
     id="namedview1"
     pagecolor="#ffffff"
     bordercolor="#000000"
     borderopacity="0.25"
     inkscape:showpageshadow="2"
     inkscape:pageopacity="0.0"
     inkscape:pagecheckerboard="0"
     inkscape:deskcolor="#d1d1d1"
     inkscape:document-units="mm"><inkscape:page
       x="0"
       y="-3.3467781e-22"
       width="215.27928"
       height="62.634567"
       id="page2"
       margin="0"
       bleed="0" /></sodipodi:namedview><defs
     id="defs1"><linearGradient
       id="linearGradient62"
       inkscape:collect="always"><stop
         style="stop-color:#a2a2a2;stop-opacity:1;"
         offset="0.20261438"
         id="stop61" /><stop
         style="stop-color:#a2a2a2;stop-opacity:0;"
         offset="1"
         id="stop62" /></linearGradient><linearGradient
       id="linearGradient57"
       inkscape:collect="always"><stop
         style="stop-color:#a2a2a2;stop-opacity:1;"
         offset="0"
         id="stop57" /><stop
         style="stop-color:#a2a2a2;stop-opacity:0;"
         offset="1"
         id="stop58" /></linearGradient><inkscape:path-effect
       effect="tiling"
       id="path-effect55"
       is_visible="true"
       lpeversion="1.3.1"
       unit="px"
       seed="1;1"
       lpesatellites=""
       num_rows="2"
       num_cols="8"
       gapx="0"
       gapy="0"
       offset="0"
       offset_type="false"
       scale="0"
       rotate="0"
       mirrorrowsx="true"
       mirrorrowsy="true"
       mirrorcolsx="true"
       mirrorcolsy="true"
       mirrortrans="false"
       shrink_interp="false"
       split_items="false"
       link_styles="false"
       interpolate_scalex="false"
       interpolate_scaley="true"
       interpolate_rotatex="false"
       interpolate_rotatey="true"
       random_scale="false"
       random_rotate="false"
       random_gap_y="false"
       random_gap_x="false"
       transformorigin="" /><linearGradient
       inkscape:collect="always"
       xlink:href="#linearGradient62"
       id="linearGradient58"
       x1="-92.270966"
       y1="147.92368"
       x2="208.6888"
       y2="147.53946"
       gradientUnits="userSpaceOnUse" /><linearGradient
       inkscape:collect="always"
       xlink:href="#linearGradient57"
       id="linearGradient59"
       gradientUnits="userSpaceOnUse"
       x1="-92.270966"
       y1="147.92368"
       x2="208.6888"
       y2="147.53946" /><linearGradient
       inkscape:collect="always"
       xlink:href="#linearGradient57"
       id="linearGradient60"
       gradientUnits="userSpaceOnUse"
       x1="-92.270966"
       y1="147.92368"
       x2="208.6888"
       y2="147.53946" /><linearGradient
       inkscape:collect="always"
       xlink:href="#linearGradient57"
       id="linearGradient61"
       gradientUnits="userSpaceOnUse"
       x1="-92.270966"
       y1="147.92368"
       x2="208.6888"
       y2="147.53946" /></defs><g
     inkscape:label="Layer 1"
     inkscape:groupmode="layer"
     id="layer1"
     transform="translate(-1.6541769,-1.3158258)"><g
       id="g55"
       inkscape:path-effect="#path-effect55"
       transform="translate(-44.393097,-115.09845)"
       inkscape:export-filename="PATTERN PROPERTY.svg"
       inkscape:export-xdpi="96"
       inkscape:export-ydpi="96"
       style="fill:none;stroke:url(#linearGradient58)"><path
         style="fill:none;stroke:url(#linearGradient59);stroke-width:0.499999;stroke-dasharray:none;stroke-opacity:1"
         d="m 46.298188,124.77458 0.09605,15.36869 13.207471,7.58829 13.543661,-7.87645 -0.09605,-15.12856 -13.255498,-8.02054 z m 53.694364,14.88841 -0.09605,-15.36869 -13.207471,-7.58829 -13.543661,7.87645 0.09605,15.12856 13.255498,8.02054 z m 0,-14.88841 0.09605,15.36869 13.20747,7.58829 13.54366,-7.87645 -0.0961,-15.12856 -13.25549,-8.02054 z m 53.694368,14.88841 -0.096,-15.36869 -13.20748,-7.58829 -13.54366,7.87645 0.096,15.12856 13.2555,8.02054 z m 0,-14.88841 0.0961,15.36869 13.20747,7.58829 13.54366,-7.87645 -0.096,-15.12856 -13.2555,-8.02054 z m 53.69436,14.88841 -0.096,-15.36869 -13.20747,-7.58829 -13.54366,7.87645 0.096,15.12856 13.2555,8.02054 z m 0,-14.88841 0.096,15.36869 13.20747,7.58829 13.54366,-7.87645 -0.0961,-15.12856 -13.2555,-8.02054 z m 53.69436,14.88841 -0.0961,-15.36869 -13.20747,-7.58829 -13.54366,7.87645 0.096,15.12856 13.2555,8.02054 z m -187.93027,31.02555 -0.09605,-15.36869 -13.207471,-7.58829 -13.543661,7.87645 0.09605,15.12856 13.255498,8.02054 z m 0,-14.88841 0.09605,15.36869 13.207471,7.58829 13.543661,-7.87645 -0.09605,-15.12856 -13.255498,-8.02054 z m 53.69436,14.88841 -0.0961,-15.36869 -13.20747,-7.58829 -13.543658,7.87645 0.09605,15.12856 13.2555,8.02054 z m 0,-14.88841 0.096,15.36869 13.20747,7.58829 13.54367,-7.87645 -0.096,-15.12856 -13.2555,-8.02054 z m 53.69437,14.88841 -0.096,-15.36869 -13.20747,-7.58829 -13.54366,7.87645 0.0961,15.12856 13.25549,8.02054 z m 0,-14.88841 0.096,15.36869 13.20747,7.58829 13.54366,-7.87645 -0.096,-15.12856 -13.2555,-8.02054 z m 53.69436,14.88841 -0.0961,-15.36869 -13.20747,-7.58829 -13.54366,7.87645 0.096,15.12856 13.2555,8.02054 z m 0,-14.88841 0.096,15.36869 13.20747,7.58829 13.54366,-7.87645 -0.0961,-15.12856 -13.25549,-8.02054 z"
         id="path52"
         inkscape:original-d="m 46.298188,124.77458 0.09605,15.36869 13.207471,7.58829 13.543661,-7.87645 -0.09605,-15.12856 -13.255498,-8.02054 z" /><path
         style="fill:none;stroke:url(#linearGradient60);stroke-width:0.499999;stroke-dasharray:none;stroke-opacity:1"
         d="m 59.505659,132.4109 13.303525,-7.68435 m 13.975897,7.30012 -13.303525,7.68435 m 39.718464,-7.30012 13.30353,-7.68435 m 13.97589,7.30012 -13.30352,7.68435 m 39.71847,-7.30012 13.30352,-7.68435 m 13.9759,7.30012 -13.30353,7.68435 m 39.71847,-7.30012 13.30353,-7.68435 m 13.97589,7.30012 -13.30352,7.68435 m -174.626751,23.3412 -13.303525,7.68435 m 39.718467,-7.30012 13.303525,-7.68435 m 13.975894,7.30012 -13.30352,7.68435 m 39.71846,-7.30012 13.30353,-7.68435 m 13.9759,7.30012 -13.30353,7.68435 m 39.71847,-7.30012 13.30352,-7.68435 m 13.9759,7.30012 -13.30352,7.68435 m 39.71846,-7.30012 13.30353,-7.68435"
         id="path54"
         inkscape:original-d="m 59.505659,132.4109 13.303525,-7.68435" /><path
         style="fill:none;stroke:url(#linearGradient61);stroke-width:0.499999;stroke-dasharray:none;stroke-opacity:1"
         d="m 46.44227,124.8226 13.159443,7.5883 0.04803,15.12855 m 40.198727,-7.92448 -13.159443,-7.5883 -0.04803,-15.12855 m 13.495633,7.92448 13.15945,7.5883 0.048,15.12855 m 40.19872,-7.92448 -13.15944,-7.5883 -0.048,-15.12855 m 13.49564,7.92448 13.15944,7.5883 0.048,15.12855 m 40.19873,-7.92448 -13.15945,-7.5883 -0.048,-15.12855 m 13.49564,7.92448 13.15944,7.5883 0.048,15.12855 m 40.19873,-7.92448 -13.15944,-7.5883 -0.048,-15.12855 m -174.722802,53.7424 -13.159443,-7.5883 -0.04803,-15.12855 m 13.495637,7.92448 13.159443,7.5883 0.04803,15.12855 m 40.198725,-7.92448 -13.15944,-7.5883 -0.048,-15.12855 m 13.49564,7.92448 13.15944,7.5883 0.048,15.12855 m 40.19873,-7.92448 -13.15945,-7.5883 -0.048,-15.12855 m 13.49564,7.92448 13.15944,7.5883 0.048,15.12855 m 40.19873,-7.92448 -13.15944,-7.5883 -0.048,-15.12855 m 13.49563,7.92448 13.15945,7.5883 0.048,15.12855"
         id="path55"
         inkscape:original-d="m 46.44227,124.8226 13.159443,7.5883 0.04803,15.12855" /></g></g></svg>
